<svg width="26" height="28" viewBox="0 0 26 28" fill="none" xmlns="http://www.w3.org/2000/svg">
<path d="M8.70441 14.3595L10.4805 10.7344C10.6256 10.4383 10.9234 10.2668 11.2327 10.3013C11.5419 10.3357 11.8008 10.5692 11.8865 10.8911L13.5159 17.0091L14.9674 14.7176C15.1093 14.4935 15.3448 14.3596 15.5966 14.3596H25.0252C25.6567 13.1278 26 11.7314 26 10.3022C26 5.67748 22.5063 1.91504 18.2119 1.91504C16.2824 1.91504 14.4231 2.69193 13 4.07066C11.5769 2.69193 9.71755 1.91504 7.78807 1.91504C3.49375 1.91504 0 5.67748 0 10.3022C0 11.7314 0.343281 13.1278 0.974848 14.3595H8.70441Z" fill="#E3BD76"/>
<path d="M15.9991 15.9999L13.8602 19.3767C13.717 19.6029 13.4802 19.7347 13.2311 19.7348C13.1909 19.7348 13.1504 19.7314 13.1098 19.7244C12.8183 19.6738 12.5801 19.4464 12.4987 19.1407L10.9442 13.3037L9.8375 15.5625C9.70562 15.8316 9.44633 16 9.16379 16H2.07361C2.21163 16.1608 2.35585 16.3162 2.50616 16.4656L11.5785 25.4864C11.9667 25.8724 12.4715 26.0849 13 26.0849C13.5542 26.0849 14.0755 25.8548 14.4699 25.4366L23.4939 16.4655C23.6442 16.3161 23.7884 16.1607 23.9264 15.9999H15.9991Z" fill="#E3BD76"/>
</svg>
