<svg width="28" height="28" viewBox="0 0 28 28" fill="none" xmlns="http://www.w3.org/2000/svg">
<g clip-path="url(#clip0_579_331)">
<path d="M18.0645 14.1149C17.8139 14.1894 17.5575 14.2431 17.298 14.2754C17.475 14.6254 17.892 14.9509 18.9725 15.3124C19.5417 15.4935 20.0489 15.8304 20.4365 16.2849C20.5903 16.478 20.852 16.5485 21.082 16.4589C21.2806 16.374 21.4095 16.1788 21.4095 15.9629C21.4097 15.9081 21.4009 15.8537 21.3835 15.8019C21.2898 15.5033 21.1649 15.2154 21.011 14.9429C20.7262 15.0622 20.4288 15.1491 20.1245 15.2019C20.0981 15.2062 20.0713 15.2084 20.0445 15.2084C19.7832 15.209 19.5654 15.0083 19.5448 14.7477C19.5242 14.4872 19.7078 14.2547 19.966 14.2144C20.7917 14.0794 21.5312 13.6252 22.025 12.9499C21.2566 13.1822 20.428 13.1058 19.715 12.7369C19.5046 12.6272 19.3078 12.4929 19.129 12.3369C18.2939 12.6718 17.3417 12.307 16.944 11.4999C16.8625 11.3399 16.873 11.1485 16.9716 10.9984C17.0702 10.8483 17.2417 10.7626 17.4209 10.7739C17.6001 10.7851 17.7595 10.8916 17.8385 11.0529C17.9378 11.242 18.1127 11.3801 18.3197 11.4328C18.5267 11.4856 18.7464 11.448 18.924 11.3294C19.2277 11.1187 19.3304 10.7169 19.165 10.3864C19.0853 10.2265 19.0969 10.0362 19.1954 9.88719C19.294 9.73818 19.4646 9.65307 19.6429 9.66394C19.8213 9.6748 19.9803 9.77998 20.06 9.93986C20.3462 10.5054 20.2948 11.183 19.9265 11.6989C20.0037 11.7545 20.0848 11.8046 20.169 11.8489C21.0294 12.2782 22.0699 12.0875 22.722 11.3809L22.731 11.3714C23.2527 10.7909 23.416 9.97205 23.157 9.23586C23.0411 9.32687 22.9157 9.40515 22.783 9.46936C22.6213 9.54528 22.4313 9.52914 22.2847 9.42702C22.1381 9.32489 22.0571 9.15231 22.0722 8.97427C22.0873 8.79622 22.1963 8.63978 22.358 8.56386C22.5573 8.47018 22.723 8.31743 22.8325 8.12636C23.0796 7.69269 22.9883 7.1451 22.6139 6.81507C22.2394 6.48503 21.6847 6.46323 21.2855 6.76286C21.0646 6.92855 20.7512 6.88377 20.5855 6.66286C20.4198 6.44195 20.4646 6.12855 20.6855 5.96286C20.8802 5.8176 21.0993 5.70837 21.3325 5.64036C21.007 4.24276 19.8023 3.22478 18.37 3.13686C18.37 3.17536 18.3815 3.21136 18.3815 3.25036C18.3815 3.5265 18.1577 3.75036 17.8815 3.75036C17.6054 3.75036 17.3815 3.5265 17.3815 3.25036C17.3815 2.87461 17.1811 2.52739 16.8557 2.33952C16.5302 2.15164 16.1293 2.15164 15.8039 2.33952C15.4785 2.52739 15.278 2.87461 15.278 3.25036C15.278 3.5265 15.0542 3.75036 14.778 3.75036C14.5019 3.75036 14.278 3.5265 14.278 3.25036C14.2806 3.02641 14.3201 2.80442 14.395 2.59336C14.0018 2.33443 13.5418 2.19545 13.071 2.19336C12.2049 2.19768 11.4044 2.65553 10.9615 3.39986C10.8463 3.59545 10.759 3.80614 10.702 4.02586C10.625 4.28332 10.3581 4.4338 10.0979 4.36656C9.83774 4.29933 9.67723 4.03843 9.73453 3.77586C9.76203 3.66936 9.80153 3.56686 9.83903 3.46386C9.77884 3.45327 9.71806 3.44643 9.65703 3.44336C8.9411 3.44533 8.3236 3.94662 8.17453 4.64686C8.73869 4.70261 9.25344 4.99291 9.59303 5.44686C9.75788 5.66846 9.71188 5.98175 9.49028 6.14661C9.26867 6.31147 8.95538 6.26546 8.79053 6.04386C8.59408 5.77649 8.2818 5.61896 7.95003 5.61986C7.36904 5.62289 6.89974 6.09487 6.90003 6.67586C6.90002 6.79284 6.9198 6.90898 6.95853 7.01936C7.03903 7.25372 7.19938 7.4523 7.41153 7.58036C7.56462 7.67244 7.65695 7.83921 7.65374 8.01783C7.65054 8.19645 7.55229 8.35979 7.39599 8.44633C7.2397 8.53286 7.04912 8.52945 6.89603 8.43736C6.76069 8.35344 6.63567 8.25392 6.52353 8.14086C6.36452 8.5137 6.28157 8.91454 6.27953 9.31986C6.26809 10.2486 6.68181 11.1317 7.40277 11.7173C8.12372 12.3029 9.07282 12.5269 9.97953 12.3254C9.95104 12.1602 9.93582 11.993 9.93403 11.8254C9.0533 11.7293 8.38568 10.9863 8.38403 10.1004C8.38346 9.82301 8.60669 9.59711 8.88403 9.59436C9.01595 9.59289 9.143 9.64421 9.2369 9.73689C9.3308 9.82957 9.38377 9.95593 9.38403 10.0879V10.1004C9.39284 10.4941 9.70325 10.8148 10.0965 10.8364C10.1672 10.6119 10.2631 10.3962 10.3825 10.1934C10.5246 9.95657 10.8317 9.87979 11.0685 10.0219C11.3053 10.1639 11.3821 10.4711 11.24 10.7079C10.6719 11.659 10.9236 12.8865 11.8202 13.5372C12.7168 14.188 13.9618 14.0468 14.69 13.2119C14.8324 13.0584 15.0511 13.0018 15.25 13.0669C15.7758 13.2764 16.3428 13.3619 16.907 13.3169C17.1998 13.2972 17.4894 13.2438 17.77 13.1579C17.9408 13.1054 18.1266 13.1481 18.2574 13.2698C18.3882 13.3914 18.4441 13.5737 18.4041 13.7478C18.3641 13.9219 18.2343 14.0614 18.0635 14.1139L18.0645 14.1149ZM11.8775 7.49486C11.8775 7.771 11.6537 7.99486 11.3775 7.99486C11.1014 7.99486 10.8775 7.771 10.8775 7.49486C10.8792 6.22529 11.908 5.19651 13.1775 5.19486C13.4537 5.19486 13.6775 5.41872 13.6775 5.69486C13.6775 5.971 13.4537 6.19486 13.1775 6.19486C12.4596 6.19486 11.8775 6.77689 11.8775 7.49486ZM15.8 10.1914C15.4342 11.1596 14.5056 11.7988 13.4705 11.7949C13.1944 11.7949 12.9705 11.571 12.9705 11.2949C12.9705 11.0187 13.1944 10.7949 13.4705 10.7949C13.9542 10.7959 14.4081 10.5617 14.6875 10.1669C14.0706 10.0343 13.5109 9.71124 13.0875 9.24336C12.9024 9.03846 12.9184 8.72226 13.1233 8.53711C13.3282 8.35196 13.6444 8.36796 13.8295 8.57286C14.5148 9.30476 15.6301 9.43082 16.4615 8.87036C16.8931 8.57189 17.1896 8.11544 17.287 7.59986C17.3178 7.42169 17.4423 7.274 17.6128 7.21362C17.7832 7.15324 17.9729 7.18956 18.109 7.30862C18.2451 7.42768 18.3063 7.61093 18.269 7.78786C18.0295 9.02643 17.0446 9.98518 15.8 10.1914Z" fill="#E3BD76"/>
<path d="M24.3255 15.3614C25.3125 14.0279 26.2445 12.7684 26.2755 10.5139C26.304 9.17754 26.1411 7.84401 25.7915 6.55388C25.3509 5.03728 24.4246 3.70721 23.155 2.76788C19.9095 0.21488 17.069 -0.80662 10.546 0.69988C8.95551 1.06688 7.32252 1.57638 6.15452 2.81338C5.36511 3.65801 4.75606 4.65461 4.36452 5.74238C4.1941 6.23816 4.05499 6.74416 3.94801 7.25738L3.90802 7.43188C3.78378 7.89811 3.61552 8.35148 3.40551 8.78588C3.24495 9.08427 3.13224 9.40602 3.07152 9.73938C3.09302 9.89338 3.28302 10.0684 3.48501 10.2534C3.89783 10.5448 4.16425 11.0007 4.21552 11.5034C4.20629 11.7488 4.136 11.988 4.01101 12.1994C3.98164 12.2533 3.95624 12.3093 3.93501 12.3669C3.83699 13.16 3.50367 13.9055 2.97802 14.5074C2.38652 15.1449 1.28652 16.3314 1.27802 16.6204C1.38105 16.7191 1.49154 16.8097 1.60852 16.8914C1.7289 16.9716 1.85508 17.0428 1.98602 17.1044C2.41302 17.3229 2.99802 17.6219 3.11402 18.2354C3.18634 18.6128 3.13933 19.0034 2.97952 19.3529C2.89502 19.5319 2.80702 19.6884 2.72952 19.8239C2.70352 19.8709 2.67452 19.9239 2.64902 19.9694C2.85402 20.1334 3.13902 20.3479 3.25902 20.4369C3.36727 20.5172 3.43851 20.6378 3.45658 20.7714C3.47466 20.905 3.43803 21.0402 3.35502 21.1464C3.28101 21.2433 3.21686 21.3473 3.16352 21.4569L3.27002 21.5184C3.71111 21.7093 4.04705 22.083 4.19002 22.5419C4.26845 22.8849 4.25535 23.2425 4.15201 23.5789C4.02803 23.9809 4.04568 24.4133 4.20201 24.8039C4.3091 25.2667 4.76215 25.5627 5.22902 25.4749C6.67936 25.1199 8.10945 24.6868 9.51301 24.1774H9.51602C10.0015 24.0114 10.445 23.8554 10.8035 23.7274C11.1865 23.5929 11.4755 23.4914 11.622 23.4454C13.694 22.7954 14.1145 22.0419 14.1025 21.5264C14.0961 21.2504 14.3145 21.0214 14.5905 21.0149C14.724 21.0082 14.8545 21.0566 14.9512 21.1489C15.0479 21.2412 15.1025 21.3692 15.102 21.5029C15.1315 22.7529 14.0615 23.7259 11.923 24.3989C11.783 24.4429 11.5045 24.5409 11.135 24.6709L10.7615 24.8019C11.5164 25.6161 12.0775 26.5904 12.403 27.6519C12.4717 27.8569 12.6628 27.9958 12.879 27.9979H19.1645C18.237 25.3999 17.405 22.4324 17.95 19.3674C17.989 19.1459 18.036 18.9214 18.0835 18.6944C18.3445 17.8466 18.3741 16.9444 18.169 16.0814C17.041 15.6339 16.469 15.1109 16.253 14.3104C15.8986 14.2814 15.5484 14.2132 15.209 14.1069C14.4956 14.7732 13.5123 15.0687 12.5497 14.9063C11.5871 14.7438 10.7553 14.1419 10.3 13.2784C8.67861 13.6733 6.98069 13.0357 6.01998 11.6712C5.05927 10.3066 5.03152 8.49318 5.95002 7.09988C5.72959 6.13405 6.24174 5.15083 7.15952 4.77788C7.20615 4.02227 7.59387 3.32887 8.21319 2.89348C8.83252 2.4581 9.61623 2.32798 10.343 2.53988C10.997 1.69567 12.0032 1.19957 13.071 1.19488C13.7337 1.19594 14.3819 1.38869 14.9375 1.74988C15.3787 1.33369 15.9825 1.13607 16.5844 1.21092C17.1862 1.28578 17.7233 1.6253 18.049 2.13688C18.099 2.13688 18.143 2.12888 18.1915 2.12888C20.2304 2.13982 21.9748 3.59583 22.35 5.59988C22.936 5.72426 23.4379 6.09936 23.7232 6.62608C24.0085 7.1528 24.0485 7.77814 23.8325 8.33688C24.5196 9.47036 24.4082 10.9156 23.5555 11.9304C23.3364 12.954 22.7444 13.8596 21.8945 14.4709C22.0762 14.794 22.2241 15.135 22.336 15.4884C22.3867 15.6409 22.4124 15.8006 22.412 15.9614C22.411 16.5363 22.089 17.0624 21.5775 17.3249C21.5366 17.8535 21.4558 18.3784 21.336 18.8949C21.2905 19.1124 21.245 19.3274 21.208 19.5399C20.6805 22.5014 21.5695 25.4399 22.5 27.9984H22.9675C23.1394 27.9982 23.2992 27.9098 23.3906 27.7642C23.4819 27.6186 23.4921 27.4362 23.4175 27.2814C22.7394 25.7892 22.3169 24.1936 22.1675 22.5614C21.9691 20.8891 22.2202 19.1942 22.895 17.6514C23.283 16.836 23.7629 16.0677 24.3255 15.3614Z" fill="#E3BD76"/>
<path d="M20.2205 19.3675C20.26 19.1455 20.307 18.9175 20.3545 18.6915C20.4469 18.2867 20.5168 17.8771 20.564 17.4645C20.2163 17.3905 19.903 17.203 19.6735 16.9315C19.5608 16.7993 19.432 16.6818 19.29 16.5815C19.3346 17.3608 19.2581 18.1423 19.063 18.898C19.0175 19.114 18.9725 19.3285 18.9355 19.54C18.408 22.5005 19.297 25.44 20.2275 27.998H21.4345C20.5065 25.4 19.6745 22.433 20.2205 19.3675Z" fill="#E3BD76"/>
</g>
<defs>
<clipPath id="clip0_579_331">
<rect width="28" height="28" fill="white"/>
</clipPath>
</defs>
</svg>
