<svg width="28" height="28" viewBox="0 0 28 28" fill="none" xmlns="http://www.w3.org/2000/svg">
<g clip-path="url(#clip0_579_358)">
<path d="M18.9762 21.4373C15.5458 21.4373 12.7972 24.4567 13.2919 28H15.6402C16.093 28 16.4605 27.6325 16.4605 27.1796C16.4605 25.8228 17.5647 24.7186 18.9216 24.7186H20.5622C21.9191 24.7186 23.0233 23.6145 23.0233 22.2576V21.4373H18.9762ZM26.169 16.0635C26.0558 15.8923 23.6254 12.2085 22.968 11.2164C22.9686 10.0772 22.9686 9.45377 22.9686 9.45377C22.9686 6.35809 19.5172 0.740742 13.6025 0.0696511C7.13713 -0.663731 1.69446 4.49565 1.69446 10.7729C1.69446 13.7923 2.98184 16.682 5.22574 18.7012C6.05778 19.449 6.67118 20.4623 6.67118 21.5767V27.1796C6.67118 27.6325 7.03869 28 7.49151 28H11.637C11.6173 27.8146 11.6041 27.6286 11.5976 27.4427C11.4528 23.2695 14.7861 19.7966 18.9762 19.7966H23.0233C23.0233 18.4398 24.1274 17.3356 25.4843 17.3356C26.1389 17.3356 26.5272 16.6065 26.169 16.0635Z" fill="#E3BD76"/>
</g>
<defs>
<clipPath id="clip0_579_358">
<rect width="28" height="28" fill="white"/>
</clipPath>
</defs>
</svg>
