<svg width="28" height="28" viewBox="0 0 28 28" fill="none" xmlns="http://www.w3.org/2000/svg">
<path d="M26.0094 8.17269C25.739 6.72543 24.988 5.41182 23.8779 4.44467C22.7679 3.47752 21.3638 2.91349 19.8931 2.84394C18.1941 2.8013 16.5387 3.38527 15.2425 4.48456H13.9037C12.3506 4.15644 12.4469 2.29706 12.4512 2.21831C12.4554 2.16078 12.4482 2.10299 12.43 2.04825C12.4118 1.99351 12.383 1.9429 12.3452 1.89932C12.3074 1.85573 12.2614 1.82003 12.2098 1.79426C12.1582 1.76849 12.102 1.75315 12.0444 1.74912C11.9869 1.74509 11.9291 1.75245 11.8744 1.77079C11.8197 1.78912 11.7692 1.81806 11.7257 1.85596C11.6822 1.89385 11.6466 1.93995 11.621 1.99162C11.5953 2.04329 11.5801 2.09951 11.5762 2.15706C11.5106 3.10206 11.8912 4.98769 13.7769 5.35519C13.8044 5.35883 13.8322 5.36029 13.86 5.35956H15.4131C15.5271 5.35946 15.6367 5.31561 15.7194 5.23706C16.8605 4.22821 18.3397 3.68619 19.8625 3.71894C21.1352 3.77988 22.35 4.26887 23.3101 5.10663C24.2701 5.94439 24.9191 7.08182 25.1519 8.33456C25.3171 9.25836 25.3553 10.2004 25.2656 11.1346C25.2219 11.1127 25.1825 11.0952 25.1431 11.0733C24.2912 10.617 23.3355 10.3894 22.3694 10.4127C21.4032 10.3894 20.4475 10.617 19.5956 11.0733C18.8626 11.4729 18.0371 11.6721 17.2025 11.6508C16.3664 11.6726 15.5394 11.4734 14.805 11.0733C14.5358 10.9395 14.2598 10.8197 13.9781 10.7146C13.9562 9.09144 14.1137 7.91019 14.42 7.48144C14.4685 7.41499 14.4972 7.33611 14.5026 7.25401C14.508 7.1719 14.49 7.08994 14.4506 7.01769C14.4106 6.94577 14.3513 6.88641 14.2794 6.84623C14.2076 6.80606 14.126 6.78665 14.0437 6.79019C13.8906 6.79894 10.3775 6.92146 9.97499 2.15269C9.97062 2.09535 9.95498 2.03943 9.92895 1.98815C9.90292 1.93687 9.86701 1.89124 9.8233 1.85387C9.77959 1.8165 9.72893 1.78814 9.67422 1.7704C9.61952 1.75266 9.56185 1.7459 9.50452 1.75051C9.4472 1.75512 9.39135 1.77101 9.34019 1.79726C9.28902 1.82351 9.24354 1.8596 9.20636 1.90347C9.16918 1.94735 9.14103 1.99813 9.12352 2.05291C9.10602 2.10769 9.09951 2.16539 9.10436 2.22269C9.46311 6.51019 12.1319 7.42456 13.4094 7.61706C13.1407 8.73638 13.039 9.88925 13.1075 11.0383C13.1118 11.2527 13.1206 11.4671 13.1294 11.6727C13.1717 12.3522 13.0264 13.0302 12.7094 13.6327C12.1159 14.6255 11.1687 15.357 10.0581 15.6802C9.50631 15.8517 8.98933 16.1198 8.53124 16.4721C8.14597 16.0497 7.64813 15.7461 7.09624 15.5971C6.49977 15.4145 5.86857 15.3756 5.2542 15.4835C4.63982 15.5915 4.05971 15.8433 3.56124 16.2183C3.0218 16.6172 2.58305 17.1367 2.27997 17.7352C1.9769 18.3338 1.81788 18.9949 1.81561 19.6658V25.8127C1.81595 25.9286 1.86215 26.0397 1.94413 26.1217C2.0261 26.2036 2.13718 26.2498 2.25311 26.2502H4.71624C4.83216 26.2498 4.94324 26.2036 5.02521 26.1217C5.10719 26.0397 5.15339 25.9286 5.15374 25.8127V19.8714C5.15438 19.5734 5.27305 19.2878 5.48377 19.0771C5.69449 18.8664 5.98011 18.7477 6.27811 18.7471H6.54936C6.56911 18.7468 6.58863 18.7512 6.60637 18.7599C6.6241 18.7686 6.63955 18.7813 6.65146 18.7971C6.66338 18.8128 6.67143 18.8312 6.67498 18.8506C6.67852 18.87 6.67745 18.89 6.67186 18.9089C6.15999 20.8164 6.32624 22.4308 7.17499 23.6996C8.54436 25.7558 11.1825 26.1277 11.2919 26.1408C14.35 26.5783 17.3906 25.6814 20.0812 23.5464C21.9312 22.0471 23.3828 20.1146 24.3075 17.9202C25.935 14.1314 26.5081 10.8502 26.0094 8.17269Z" fill="#E3BD76"/>
</svg>
