<svg width="26" height="26" viewBox="0 0 26 26" fill="none" xmlns="http://www.w3.org/2000/svg">
<path d="M19.7368 11.7368H14.2632V6.26316C14.2632 5.56663 13.6965 5 13 5C12.3035 5 11.7368 5.56663 11.7368 6.26316V11.7368H6.26316C5.56663 11.7368 5 12.3035 5 13C5 13.6965 5.56663 14.2632 6.26316 14.2632H11.7368V19.7368C11.7368 20.4334 12.3035 21 13 21C13.6965 21 14.2632 20.4334 14.2632 19.7368V14.2632H19.7368C20.4334 14.2632 21 13.6965 21 13C21 12.3035 20.4334 11.7368 19.7368 11.7368Z" fill="#CEAF6C"/>
</svg>
